<svg width="180" height="82" viewBox="0 0 180 82" xmlns="http://www.w3.org/2000/svg"><g fill="#0F88EB" fill-rule="evenodd"><path d="M143.295 41.675V13.233c1.35 0 3.4-.11 6.325-.34 11.474-.683 19.684-1.135 24.635-1.365 0 0 3.428-7.709-.166-9.482-.861-.337-6.499 1.298-6.499 1.298S121.221 8.02 102.375 8.46c.447 2.502 2.142 4.844 4.425 5.545 3.736.986 6.374.48 13.798.25 6.97-.45 12.346-.68 15.948-.68v28.1H99s.793 6.658 7.16 6.814h30.386v19.977c0 3.963-3.227 6.237-6.958 5.99-3.95.033-7.319-.325-11.699-.512.56 1.126 1.776 4.08 5.42 6.192C126.082 81.5 127.848 82 130.613 82c8.295 0 12.903-4.899 12.683-12.852V48.489h34.255c2.72 0 2.442-7.079 2.442-7.079-5.555 0-36.697.265-36.697.265zM115.93 21.37c-2.527-2.338-7.271.605-7.271.605s11.085 15.609 11.54 16.291l5.46-3.894s-7.203-10.663-9.73-13.002m47.066-1.009c-1.684 2.314-10.34 13.67-10.34 13.67l5.401 4.091c5.847-7.271 12.624-16.607 12.624-16.607s-5.234-4.196-7.685-1.154M44.084 45.476s-.047-6.824-2.15-6.85H27.279c.488-7.707.65-14.411.65-20.58h14.333c0-.073.473-6.94-2.482-6.86H14.988c.976-3.75 2.284-7.19 3.754-11.186 0 0-6.743 0-9.04 6.16-.95 2.544-3.701 12.314-8.6 22.296 1.651-.18 7.107-.332 10.32-6.337.592-1.676.705-1.9 1.44-4.073h8.085c0 2.921-.371 18.728-.507 20.58H5.793c-3.289.026-4.338 6.85-4.338 6.85H19.83C18.6 59.704 12 71.894 0 81.377c5.74 1.668 11.46-.267 14.287-2.827 0 0 6.438-5.96 9.967-19.766l15.118 18.535s2.217-7.674-.347-11.412c-2.124-2.548-7.86-9.436-10.306-11.934l-4.097 3.313c1.222-3.989 1.944-8.066 2.19-11.81h17.272zM75.26 64.924l-7.952.04-7.816 5.002-1.422-5.002h-4.181l.022-48.046 21.35-.015v48.02zM47.225 10.042l-.014 61.755h7.11l2.16 7.523 11.768-7.523L82 71.784V10.042H47.225z"/></g></svg>